<svg id="visual" viewBox="0 0 960 540" width="960" height="540" xmlns="http://www.w3.org/2000/svg" xmlns:xlink="http://www.w3.org/1999/xlink" version="1.1"><rect x="0" y="0" width="960" height="540" fill="#140021"></rect><path d="M448 540L515 540L515 473L535 473L535 405L441 405L441 338L488 338L488 270L566 270L566 203L432 203L432 135L561 135L561 68L442 68L442 0L960 0L960 68L960 68L960 135L960 135L960 203L960 203L960 270L960 270L960 338L960 338L960 405L960 405L960 473L960 473L960 540L960 540Z" fill="#560090"></path><path d="M591 540L630 540L630 473L581 473L581 405L674 405L674 338L680 338L680 270L730 270L730 203L673 203L673 135L670 135L670 68L712 68L712 0L960 0L960 68L960 68L960 135L960 135L960 203L960 203L960 270L960 270L960 338L960 338L960 405L960 405L960 473L960 473L960 540L960 540Z" fill="#7700c6"></path><path d="M785 540L710 540L710 473L813 473L813 405L758 405L758 338L712 338L712 270L727 270L727 203L809 203L809 135L784 135L784 68L822 68L822 0L960 0L960 68L960 68L960 135L960 135L960 203L960 203L960 270L960 270L960 338L960 338L960 405L960 405L960 473L960 473L960 540L960 540Z" fill="#9900ff"></path></svg>