<svg id="visual" viewBox="0 0 960 540" width="960" height="540" xmlns="http://www.w3.org/2000/svg" xmlns:xlink="http://www.w3.org/1999/xlink" version="1.1"><rect x="0" y="0" width="960" height="540" fill="#140021"></rect><path d="M436 0L540 0L540 77L462 77L462 154L429 154L429 231L489 231L489 309L491 309L491 386L437 386L437 463L355 463L355 540L0 540L0 463L0 463L0 386L0 386L0 309L0 309L0 231L0 231L0 154L0 154L0 77L0 77L0 0L0 0Z" fill="#9900ff"></path><path d="M307 0L257 0L257 77L227 77L227 154L406 154L406 231L227 231L227 309L342 309L342 386L319 386L319 463L310 463L310 540L0 540L0 463L0 463L0 386L0 386L0 309L0 309L0 231L0 231L0 154L0 154L0 77L0 77L0 0L0 0Z" fill="#7700c6"></path><path d="M135 0L242 0L242 77L123 77L123 154L247 154L247 231L150 231L150 309L247 309L247 386L161 386L161 463L178 463L178 540L0 540L0 463L0 463L0 386L0 386L0 309L0 309L0 231L0 231L0 154L0 154L0 77L0 77L0 0L0 0Z" fill="#560090"></path></svg>